<svg width="1200" height="800" viewBox="0 0 1200 800" fill="none" xmlns="http://www.w3.org/2000/svg">
  <rect width="1200" height="800" rx="40" fill="#F5F1E8"/>
  <rect x="48" y="48" width="1104" height="704" rx="32" fill="#FCFBF7"/>
  <rect x="88" y="88" width="220" height="624" rx="24" fill="#0A2E36"/>
  <rect x="116" y="128" width="120" height="24" rx="12" fill="#C5A059"/>
  <rect x="116" y="184" width="164" height="14" rx="7" fill="#E5E1DA"/>
  <rect x="116" y="226" width="144" height="14" rx="7" fill="#E5E1DA"/>
  <rect x="116" y="268" width="172" height="14" rx="7" fill="#E5E1DA"/>
  <rect x="116" y="354" width="164" height="120" rx="20" fill="#113D47"/>
  <circle cx="170" cy="414" r="24" fill="#2D5A4C"/>
  <rect x="208" y="398" width="54" height="12" rx="6" fill="#E5E1DA"/>
  <rect x="208" y="420" width="38" height="10" rx="5" fill="#C5A059"/>
  <rect x="336" y="88" width="776" height="88" rx="24" fill="#FFFFFF"/>
  <rect x="376" y="120" width="220" height="18" rx="9" fill="#D8D0C3"/>
  <rect x="912" y="112" width="160" height="40" rx="20" fill="#0A2E36"/>
  <rect x="336" y="208" width="360" height="240" rx="28" fill="#0A2E36"/>
  <path d="M388 384C444 320 494 332 534 280C566 238 614 236 644 248" stroke="#C5A059" stroke-width="16" stroke-linecap="round"/>
  <circle cx="388" cy="384" r="14" fill="#C5A059"/>
  <circle cx="534" cy="280" r="14" fill="#C5A059"/>
  <circle cx="644" cy="248" r="14" fill="#C5A059"/>
  <rect x="728" y="208" width="384" height="112" rx="28" fill="#FFFFFF"/>
  <rect x="760" y="244" width="164" height="16" rx="8" fill="#D8D0C3"/>
  <rect x="760" y="274" width="110" height="12" rx="6" fill="#E5E1DA"/>
  <rect x="960" y="236" width="112" height="40" rx="20" fill="#2D5A4C"/>
  <rect x="728" y="336" width="184" height="192" rx="28" fill="#FFFFFF"/>
  <rect x="944" y="336" width="168" height="192" rx="28" fill="#F1ECE2"/>
  <rect x="336" y="480" width="360" height="232" rx="28" fill="#FFFFFF"/>
  <rect x="376" y="524" width="124" height="16" rx="8" fill="#D8D0C3"/>
  <rect x="376" y="560" width="280" height="18" rx="9" fill="#E5E1DA"/>
  <rect x="376" y="594" width="248" height="18" rx="9" fill="#E5E1DA"/>
  <rect x="728" y="560" width="384" height="152" rx="28" fill="#0F3A44"/>
  <rect x="760" y="594" width="140" height="16" rx="8" fill="#C5A059"/>
  <rect x="760" y="628" width="300" height="18" rx="9" fill="#E5E1DA"/>
</svg>
